<svg version="1" xmlns="http://www.w3.org/2000/svg" width="933.333" height="933.333" viewBox="0 0 700.000000 700.000000"><path d="M328.5.6c-30.5 3-42.1 4.8-63.2 10-41.3 10.1-84.1 29.8-118.8 54.8-22.4 16.1-52.2 44.2-68.1 64.1-42.9 53.8-67.3 111.5-76 180-2.5 19.6-2.5 61.4 0 81 8.7 68.5 33.1 126.2 76 180 10.2 12.9 38.2 40.9 51.1 51.1 53.8 42.9 111.5 67.3 180 76 19.6 2.5 61.4 2.5 81 0 68.5-8.7 126.2-33.1 180-76 12.9-10.2 40.9-38.2 51.1-51.1 42.9-53.8 67.3-111.5 76-180 2.5-19.6 2.5-61.4 0-81-8.7-68.5-33.1-126.2-76-180-10.2-12.9-38.2-40.9-51.1-51.1C516.8 35.6 458.9 11.1 391 2.5 379.3 1 337.4-.3 328.5.6zM376 46c80.5 7 155.4 45.9 207.2 107.5 36.8 43.8 60.4 96.4 68.9 153.5 2 13.3 2.3 19.4 2.3 43s-.3 29.7-2.3 43c-8.1 54.4-30 105-64.2 148-10.7 13.5-33.4 36.2-46.9 46.9-43 34.2-93.6 56.1-148 64.2-13.3 2-19.4 2.3-43 2.3s-29.7-.3-43-2.3C184.1 633.7 85.6 545.5 54.6 426c-24.7-95.1-1.5-196.6 62.2-272.5C163.2 98.3 228.9 60.8 300.1 49c23.4-3.9 52.6-5 75.9-3z"/><path d="M338 120.1c-40.6 3.3-72.7 17.4-98.5 43.3-16.1 16.2-25.3 30.8-32 50.9-3.4 10.3-7.1 30.6-5.7 31.8.4.4 16.2 2.5 35.2 4.8 19 2.3 35.9 4.4 37.6 4.7l3 .6 2.3-8.3c8.4-30.5 24.8-50.4 49.1-59.5 11.9-4.5 21.5-5.8 36.8-5.1 14.8.7 21.5 2.3 33.1 7.9 15.2 7.3 27.9 22.6 31.6 37.9 2.9 12.5 1.6 23.5-4.2 35.7-4.3 9.2-11.7 16.6-41.8 42.1-12.1 10.2-26.1 22.6-31 27.6-27.7 27.8-36.5 50.7-36.5 94.8V447l37.8-.2 37.7-.3.6-15c1.3-33.6 4.3-38.4 47.4-76 34.1-29.8 52.6-49.7 61-65.7 8.2-15.5 11.5-28.6 11.5-45.8 0-32-12.5-59.2-38.2-83.5-25.9-24.3-58.2-37.3-100.8-40.5-15.1-1.1-20.8-1.1-36 .1zM317 520.5V559h77v-77h-77v38.5z"/></svg>